<?xml version="1.0" encoding="UTF-8" standalone="no"?><svg xmlns="http://www.w3.org/2000/svg" xmlns:xlink="http://www.w3.org/1999/xlink" contentScriptType="application/ecmascript" contentStyleType="text/css" height="716px" preserveAspectRatio="none" style="width:587px;height:716px;" version="1.1" viewBox="0 0 587 716" width="587px" zoomAndPan="magnify"><defs><filter height="300%" id="fac3x5skl58fv" width="300%" x="-1" y="-1"><feGaussianBlur result="blurOut" stdDeviation="2.0"/><feColorMatrix in="blurOut" result="blurOut2" type="matrix" values="0 0 0 0 0 0 0 0 0 0 0 0 0 0 0 0 0 0 .4 0"/><feOffset dx="4.0" dy="4.0" in="blurOut2" result="blurOut3"/><feBlend in="SourceGraphic" in2="blurOut3" mode="normal"/></filter></defs><g><!--class Instrument--><rect fill="#FEFECE" filter="url(#fac3x5skl58fv)" height="99.2188" id="Instrument" style="stroke: #A80036; stroke-width: 1.5;" width="125" x="219.5" y="447"/><ellipse cx="245.75" cy="463" fill="#A9DCDF" rx="11" ry="11" style="stroke: #A80036; stroke-width: 1.0;"/><path d="M245.8594,458.3438 L244.7031,463.4219 L247.0313,463.4219 L245.8594,458.3438 Z M244.375,456.1094 L247.3594,456.1094 L250.7188,468.5 L248.2656,468.5 L247.5,465.4375 L244.2188,465.4375 L243.4688,468.5 L241.0313,468.5 L244.375,456.1094 Z "/><text fill="#000000" font-family="sans-serif" font-size="12" font-style="italic" lengthAdjust="spacingAndGlyphs" textLength="68" x="262.25" y="467.1543">Instrument</text><line style="stroke: #A80036; stroke-width: 1.5;" x1="220.5" x2="343.5" y1="479" y2="479"/><text fill="#000000" font-family="sans-serif" font-size="11" lengthAdjust="spacingAndGlyphs" textLength="89" x="225.5" y="493.2104">String material;</text><text fill="#000000" font-family="sans-serif" font-size="11" lengthAdjust="spacingAndGlyphs" textLength="77" x="225.5" y="506.0151">String  colour</text><text fill="#000000" font-family="sans-serif" font-size="11" lengthAdjust="spacingAndGlyphs" textLength="113" x="225.5" y="518.8198">double boughtPrice;</text><text fill="#000000" font-family="sans-serif" font-size="11" lengthAdjust="spacingAndGlyphs" textLength="94" x="225.5" y="531.6245">double sellPrice;</text><line style="stroke: #A80036; stroke-width: 1.5;" x1="220.5" x2="343.5" y1="538.2188" y2="538.2188"/><!--class Saxophone--><rect fill="#FEFECE" filter="url(#fac3x5skl58fv)" height="86.4141" id="Saxophone" style="stroke: #A80036; stroke-width: 1.5;" width="112" x="6" y="612.5"/><ellipse cx="25.5" cy="628.5" fill="#ADD1B2" rx="11" ry="11" style="stroke: #A80036; stroke-width: 1.0;"/><path d="M28.4688,634.1406 Q27.8906,634.4375 27.25,634.5859 Q26.6094,634.7344 25.9063,634.7344 Q23.4063,634.7344 22.0859,633.0859 Q20.7656,631.4375 20.7656,628.3125 Q20.7656,625.1875 22.0859,623.5313 Q23.4063,621.875 25.9063,621.875 Q26.6094,621.875 27.2578,622.0313 Q27.9063,622.1875 28.4688,622.4844 L28.4688,625.2031 Q27.8438,624.625 27.25,624.3516 Q26.6563,624.0781 26.0313,624.0781 Q24.6875,624.0781 24,625.1484 Q23.3125,626.2188 23.3125,628.3125 Q23.3125,630.4063 24,631.4766 Q24.6875,632.5469 26.0313,632.5469 Q26.6563,632.5469 27.25,632.2734 Q27.8438,632 28.4688,631.4219 L28.4688,634.1406 Z "/><text fill="#000000" font-family="sans-serif" font-size="12" lengthAdjust="spacingAndGlyphs" textLength="70" x="40.5" y="632.6543">Saxophone</text><line style="stroke: #A80036; stroke-width: 1.5;" x1="7" x2="117" y1="644.5" y2="644.5"/><text fill="#000000" font-family="sans-serif" font-size="11" lengthAdjust="spacingAndGlyphs" textLength="72" x="12" y="658.7104">string make;</text><text fill="#000000" font-family="sans-serif" font-size="11" lengthAdjust="spacingAndGlyphs" textLength="58" x="12" y="671.5151">int valves;</text><line style="stroke: #A80036; stroke-width: 1.5;" x1="7" x2="117" y1="678.1094" y2="678.1094"/><text fill="#000000" font-family="sans-serif" font-size="11" lengthAdjust="spacingAndGlyphs" textLength="100" x="12" y="692.3198">calculateMarkUp()</text><!--class Guitar--><rect fill="#FEFECE" filter="url(#fac3x5skl58fv)" height="73.6094" id="Guitar" style="stroke: #A80036; stroke-width: 1.5;" width="112" x="153" y="618.5"/><ellipse cx="186.9" cy="634.5" fill="#ADD1B2" rx="11" ry="11" style="stroke: #A80036; stroke-width: 1.0;"/><path d="M189.8688,640.1406 Q189.2906,640.4375 188.65,640.5859 Q188.0094,640.7344 187.3063,640.7344 Q184.8063,640.7344 183.4859,639.0859 Q182.1656,637.4375 182.1656,634.3125 Q182.1656,631.1875 183.4859,629.5313 Q184.8063,627.875 187.3063,627.875 Q188.0094,627.875 188.6578,628.0313 Q189.3063,628.1875 189.8688,628.4844 L189.8688,631.2031 Q189.2438,630.625 188.65,630.3516 Q188.0563,630.0781 187.4313,630.0781 Q186.0875,630.0781 185.4,631.1484 Q184.7125,632.2188 184.7125,634.3125 Q184.7125,636.4063 185.4,637.4766 Q186.0875,638.5469 187.4313,638.5469 Q188.0563,638.5469 188.65,638.2734 Q189.2438,638 189.8688,637.4219 L189.8688,640.1406 Z "/><text fill="#000000" font-family="sans-serif" font-size="12" lengthAdjust="spacingAndGlyphs" textLength="38" x="205.1" y="638.6543">Guitar</text><line style="stroke: #A80036; stroke-width: 1.5;" x1="154" x2="264" y1="650.5" y2="650.5"/><text fill="#000000" font-family="sans-serif" font-size="11" lengthAdjust="spacingAndGlyphs" textLength="62" x="159" y="664.7104">int strings;</text><line style="stroke: #A80036; stroke-width: 1.5;" x1="154" x2="264" y1="671.3047" y2="671.3047"/><text fill="#000000" font-family="sans-serif" font-size="11" lengthAdjust="spacingAndGlyphs" textLength="100" x="159" y="685.5151">calculateMarkUp()</text><!--class Trumpet--><rect fill="#FEFECE" filter="url(#fac3x5skl58fv)" height="73.6094" id="Trumpet" style="stroke: #A80036; stroke-width: 1.5;" width="112" x="300" y="618.5"/><ellipse cx="327.6" cy="634.5" fill="#ADD1B2" rx="11" ry="11" style="stroke: #A80036; stroke-width: 1.0;"/><path d="M330.5688,640.1406 Q329.9906,640.4375 329.35,640.5859 Q328.7094,640.7344 328.0063,640.7344 Q325.5063,640.7344 324.1859,639.0859 Q322.8656,637.4375 322.8656,634.3125 Q322.8656,631.1875 324.1859,629.5313 Q325.5063,627.875 328.0063,627.875 Q328.7094,627.875 329.3578,628.0313 Q330.0063,628.1875 330.5688,628.4844 L330.5688,631.2031 Q329.9438,630.625 329.35,630.3516 Q328.7563,630.0781 328.1313,630.0781 Q326.7875,630.0781 326.1,631.1484 Q325.4125,632.2188 325.4125,634.3125 Q325.4125,636.4063 326.1,637.4766 Q326.7875,638.5469 328.1313,638.5469 Q328.7563,638.5469 329.35,638.2734 Q329.9438,638 330.5688,637.4219 L330.5688,640.1406 Z "/><text fill="#000000" font-family="sans-serif" font-size="12" lengthAdjust="spacingAndGlyphs" textLength="52" x="344.4" y="638.6543">Trumpet</text><line style="stroke: #A80036; stroke-width: 1.5;" x1="301" x2="411" y1="650.5" y2="650.5"/><text fill="#000000" font-family="sans-serif" font-size="11" lengthAdjust="spacingAndGlyphs" textLength="73" x="306" y="664.7104">String make;</text><line style="stroke: #A80036; stroke-width: 1.5;" x1="301" x2="411" y1="671.3047" y2="671.3047"/><text fill="#000000" font-family="sans-serif" font-size="11" lengthAdjust="spacingAndGlyphs" textLength="100" x="306" y="685.5151">calculateMarkUp()</text><!--class InstrumentType--><rect fill="#FEFECE" filter="url(#fac3x5skl58fv)" height="99.2188" id="InstrumentType" style="stroke: #A80036; stroke-width: 1.5;" width="129" x="447.5" y="606"/><ellipse cx="462.5" cy="622" fill="#EB937F" rx="11" ry="11" style="stroke: #A80036; stroke-width: 1.0;"/><path d="M466.6094,628 L458.8906,628 L458.8906,615.6094 L466.6094,615.6094 L466.6094,617.7656 L461.3438,617.7656 L461.3438,620.4375 L466.1094,620.4375 L466.1094,622.5938 L461.3438,622.5938 L461.3438,625.8438 L466.6094,625.8438 L466.6094,628 Z "/><text fill="#000000" font-family="sans-serif" font-size="12" lengthAdjust="spacingAndGlyphs" textLength="97" x="476.5" y="626.1543">InstrumentType</text><line style="stroke: #A80036; stroke-width: 1.5;" x1="448.5" x2="575.5" y1="638" y2="638"/><text fill="#000000" font-family="sans-serif" font-size="11" lengthAdjust="spacingAndGlyphs" textLength="63" x="453.5" y="652.2104">WOODWIND</text><text fill="#000000" font-family="sans-serif" font-size="11" lengthAdjust="spacingAndGlyphs" textLength="73" x="453.5" y="665.0151">PERCUSSION</text><text fill="#000000" font-family="sans-serif" font-size="11" lengthAdjust="spacingAndGlyphs" textLength="42" x="453.5" y="677.8198">STRING</text><text fill="#000000" font-family="sans-serif" font-size="11" lengthAdjust="spacingAndGlyphs" textLength="38" x="453.5" y="690.6245">BRASS</text><line style="stroke: #A80036; stroke-width: 1.5;" x1="448.5" x2="575.5" y1="697.2188" y2="697.2188"/><!--class ShopItems--><rect fill="#FEFECE" filter="url(#fac3x5skl58fv)" height="99.2188" id="ShopItems" style="stroke: #A80036; stroke-width: 1.5;" width="125" x="140.5" y="288"/><ellipse cx="167.65" cy="304" fill="#A9DCDF" rx="11" ry="11" style="stroke: #A80036; stroke-width: 1.0;"/><path d="M167.7594,299.3438 L166.6031,304.4219 L168.9313,304.4219 L167.7594,299.3438 Z M166.275,297.1094 L169.2594,297.1094 L172.6188,309.5 L170.1656,309.5 L169.4,306.4375 L166.1188,306.4375 L165.3688,309.5 L162.9313,309.5 L166.275,297.1094 Z "/><text fill="#000000" font-family="sans-serif" font-size="12" font-style="italic" lengthAdjust="spacingAndGlyphs" textLength="66" x="184.35" y="308.1543">ShopItems</text><line style="stroke: #A80036; stroke-width: 1.5;" x1="141.5" x2="264.5" y1="320" y2="320"/><text fill="#000000" font-family="sans-serif" font-size="11" lengthAdjust="spacingAndGlyphs" textLength="113" x="146.5" y="334.2104">double boughtPrice;</text><text fill="#000000" font-family="sans-serif" font-size="11" lengthAdjust="spacingAndGlyphs" textLength="94" x="146.5" y="347.0151">double sellPrice;</text><line style="stroke: #A80036; stroke-width: 1.5;" x1="141.5" x2="264.5" y1="353.6094" y2="353.6094"/><text fill="#000000" font-family="sans-serif" font-size="11" lengthAdjust="spacingAndGlyphs" textLength="79" x="146.5" y="367.8198">getBuyPrice();</text><text fill="#000000" font-family="sans-serif" font-size="11" lengthAdjust="spacingAndGlyphs" textLength="83" x="146.5" y="380.6245">getSoldPrice();</text><!--class MusicShop--><rect fill="#FEFECE" filter="url(#fac3x5skl58fv)" height="99.2188" id="MusicShop" style="stroke: #A80036; stroke-width: 1.5;" width="142" x="111" y="8"/><ellipse cx="145.35" cy="24" fill="#ADD1B2" rx="11" ry="11" style="stroke: #A80036; stroke-width: 1.0;"/><path d="M148.3188,29.6406 Q147.7406,29.9375 147.1,30.0859 Q146.4594,30.2344 145.7563,30.2344 Q143.2563,30.2344 141.9359,28.5859 Q140.6156,26.9375 140.6156,23.8125 Q140.6156,20.6875 141.9359,19.0313 Q143.2563,17.375 145.7563,17.375 Q146.4594,17.375 147.1078,17.5313 Q147.7563,17.6875 148.3188,17.9844 L148.3188,20.7031 Q147.6938,20.125 147.1,19.8516 Q146.5063,19.5781 145.8813,19.5781 Q144.5375,19.5781 143.85,20.6484 Q143.1625,21.7188 143.1625,23.8125 Q143.1625,25.9063 143.85,26.9766 Q144.5375,28.0469 145.8813,28.0469 Q146.5063,28.0469 147.1,27.7734 Q147.6938,27.5 148.3188,26.9219 L148.3188,29.6406 Z "/><text fill="#000000" font-family="sans-serif" font-size="12" lengthAdjust="spacingAndGlyphs" textLength="67" x="163.65" y="28.1543">MusicShop</text><line style="stroke: #A80036; stroke-width: 1.5;" x1="112" x2="252" y1="40" y2="40"/><text fill="#000000" font-family="sans-serif" font-size="11" lengthAdjust="spacingAndGlyphs" textLength="130" x="117" y="54.2104">ArrayList&lt;ISell&gt; stock;</text><line style="stroke: #A80036; stroke-width: 1.5;" x1="112" x2="252" y1="60.8047" y2="60.8047"/><text fill="#000000" font-family="sans-serif" font-size="11" lengthAdjust="spacingAndGlyphs" textLength="88" x="117" y="75.0151">addItem(stock);</text><text fill="#000000" font-family="sans-serif" font-size="11" lengthAdjust="spacingAndGlyphs" textLength="110" x="117" y="87.8198">removeItem(stock);</text><text fill="#000000" font-family="sans-serif" font-size="11" lengthAdjust="spacingAndGlyphs" textLength="67" x="117" y="100.6245">totalProfit();</text><!--class IPlay--><rect fill="#FEFECE" filter="url(#fac3x5skl58fv)" height="60.8047" id="IPlay" style="stroke: #A80036; stroke-width: 1.5;" width="88" x="296" y="167"/><ellipse cx="323.6" cy="183" fill="#B4A7E5" rx="11" ry="11" style="stroke: #A80036; stroke-width: 1.0;"/><path d="M319.5219,178.7656 L319.5219,176.6094 L326.9125,176.6094 L326.9125,178.7656 L324.4438,178.7656 L324.4438,186.8438 L326.9125,186.8438 L326.9125,189 L319.5219,189 L319.5219,186.8438 L321.9906,186.8438 L321.9906,178.7656 L319.5219,178.7656 Z "/><text fill="#000000" font-family="sans-serif" font-size="12" font-style="italic" lengthAdjust="spacingAndGlyphs" textLength="28" x="340.4" y="187.1543">IPlay</text><line style="stroke: #A80036; stroke-width: 1.5;" x1="297" x2="383" y1="199" y2="199"/><line style="stroke: #A80036; stroke-width: 1.5;" x1="297" x2="383" y1="207" y2="207"/><text fill="#000000" font-family="sans-serif" font-size="11" lengthAdjust="spacingAndGlyphs" textLength="76" x="302" y="221.2104">play() : string</text><!--class ISell--><rect fill="#FEFECE" filter="url(#fac3x5skl58fv)" height="60.8047" id="ISell" style="stroke: #A80036; stroke-width: 1.5;" width="157" x="103.5" y="167"/><ellipse cx="165.25" cy="183" fill="#B4A7E5" rx="11" ry="11" style="stroke: #A80036; stroke-width: 1.0;"/><path d="M161.1719,178.7656 L161.1719,176.6094 L168.5625,176.6094 L168.5625,178.7656 L166.0938,178.7656 L166.0938,186.8438 L168.5625,186.8438 L168.5625,189 L161.1719,189 L161.1719,186.8438 L163.6406,186.8438 L163.6406,178.7656 L161.1719,178.7656 Z "/><text fill="#000000" font-family="sans-serif" font-size="12" font-style="italic" lengthAdjust="spacingAndGlyphs" textLength="25" x="185.75" y="187.1543">ISell</text><line style="stroke: #A80036; stroke-width: 1.5;" x1="104.5" x2="259.5" y1="199" y2="199"/><line style="stroke: #A80036; stroke-width: 1.5;" x1="104.5" x2="259.5" y1="207" y2="207"/><text fill="#000000" font-family="sans-serif" font-size="11" lengthAdjust="spacingAndGlyphs" textLength="145" x="109.5" y="221.2104">double calculateMarkup();</text><!--link Instrument to Guitar--><path d="M250.788,564.628 C242.238,583.015 233.294,602.252 225.884,618.1883 " fill="none" id="Instrument-Guitar" style="stroke: #A80036; stroke-width: 1.0;"/><polygon fill="none" points="244.523,561.499,259.303,546.315,257.217,567.402,244.523,561.499" style="stroke: #A80036; stroke-width: 1.0;"/><!--link Instrument to Trumpet--><path d="M313.64,564.628 C322.306,583.015 331.373,602.252 338.885,618.1883 " fill="none" id="Instrument-Trumpet" style="stroke: #A80036; stroke-width: 1.0;"/><polygon fill="none" points="307.204,567.391,305.008,546.315,319.867,561.422,307.204,567.391" style="stroke: #A80036; stroke-width: 1.0;"/><!--link Instrument to Saxophone--><path d="M202.701,554.091 C174.681,574.087 143.771,596.145 118.077,614.4812 " fill="none" id="Instrument-Saxophone" style="stroke: #A80036; stroke-width: 1.0;"/><polygon fill="none" points="198.905,548.2,219.251,542.28,207.038,559.595,198.905,548.2" style="stroke: #A80036; stroke-width: 1.0;"/><!--link Instrument to InstrumentType--><path d="M361.149,551.528 C389.315,570.754 420.669,592.157 447.464,610.447 " fill="none" id="Instrument-InstrumentType" style="stroke: #A80036; stroke-width: 1.0;"/><polygon fill="none" points="357.117,557.251,344.545,540.194,365.01,545.688,357.117,557.251" style="stroke: #A80036; stroke-width: 1.0;"/><!--link IPlay to Instrument--><path d="M334.227,228.063 C324.241,279.197 303.652,384.625 291.521,446.745 " fill="none" id="IPlay-Instrument" style="stroke: #A80036; stroke-width: 1.0; stroke-dasharray: 7.0,7.0;"/><!--link ShopItems to Instrument--><path d="M236.602,405.279 C243.649,419.284 250.953,433.799 257.588,446.985 " fill="none" id="ShopItems-Instrument" style="stroke: #A80036; stroke-width: 1.0;"/><polygon fill="none" points="230.3,408.327,227.563,387.315,242.806,402.034,230.3,408.327" style="stroke: #A80036; stroke-width: 1.0;"/><!--link MusicShop to ISell--><path d="M182,120.467 C182,136.554 182,153.155 182,166.726 " fill="none" id="MusicShop-ISell" style="stroke: #A80036; stroke-width: 1.0;"/><polygon fill="#A80036" points="182,107.154,178,113.154,182,119.154,186,113.154,182,107.154" style="stroke: #A80036; stroke-width: 1.0;"/><!--link ISell to ShopItems--><path d="M189.536,248.021 C191.513,261.012 193.642,275.007 195.611,287.946 " fill="none" id="ISell-ShopItems" style="stroke: #A80036; stroke-width: 1.0;"/><polygon fill="none" points="182.594,248.93,186.505,228.104,196.434,246.824,182.594,248.93" style="stroke: #A80036; stroke-width: 1.0;"/><!--
@startuml
abstract class Instrument {
  String material;
  String  colour
  double boughtPrice;
  double sellPrice;
}


class Saxophone {
  string make;
  int valves;
  calculateMarkUp()
}

class Guitar {
  int strings;
  calculateMarkUp()
}

class Trumpet {
  String make;
  calculateMarkUp()
}

enum InstrumentType { 
WOODWIND
PERCUSSION
STRING
BRASS
}

abstract class ShopItems{
 double boughtPrice;
  double sellPrice;
  getBuyPrice();
  getSoldPrice();
}

class MusicShop {
  ArrayList<ISell> stock;
  addItem(stock);
  removeItem(stock);
  totalProfit();
}

Interface IPlay {
  play() : string
}

Interface ISell {
  double calculateMarkup();
}

Instrument <|- - Guitar
Instrument <|- - Trumpet
Instrument <|- - Saxophone
Instrument <|- - InstrumentType
IPlay ... Instrument
ShopItems <|- - Instrument
MusicShop *- - ISell 
ISell <|- - ShopItems
@enduml

PlantUML version 1.2018.14(Fri Dec 21 16:33:16 UTC 2018)
(GPL source distribution)
Java Runtime: OpenJDK Runtime Environment
JVM: OpenJDK 64-Bit Server VM
Java Version: 1.8.0_181-8u181-b13-2~deb9u1-b13
Operating System: Linux
OS Version: 4.9.125-linuxkit
Default Encoding: UTF-8
Language: en
Country: null
--></g></svg>